# xmcd CD database file
#
# Track frame offsets:
#	150
#	17315
#	35708
#	53704
#	72787
#	88374
#	104907
#	123131
#	145549
#	166335
#
# Disc length: 2432 seconds
#
# Revision: 0
# Processed by: cddbd v1.5.2PL0 Copyright (c) Steve Scherf et al.
# Submitted via: CDex 1.70beta2
#
DISCID=82097e0a
DTITLE=Kathy Walker - The Kathy Walker Band
DYEAR=2000
DGENRE=Blues
TTITLE0=Fat Daddy w Renato Caranto, tenor sax solo
TTITLE1=Voodoo Man
TTITLE2=Big Picture
TTITLE3=Good Thing
TTITLE4=Clean Up Woman
TTITLE5=Make It My Business
TTITLE6=Only Time Will Tell
TTITLE7=Wishing Well
TTITLE8=It's Hard To Stop
TTITLE9=Dr Feelgood
EXTD=YEAR: 2000
EXTT0=
EXTT1=
EXTT2=
EXTT3=
EXTT4=
EXTT5=
EXTT6=
EXTT7=
EXTT8=
EXTT9=
PLAYORDER=
